<mxfile host="app.diagrams.net" agent="Mozilla/5.0 (Macintosh; Intel Mac OS X 10_15_7) AppleWebKit/537.36 (KHTML, like Gecko) Chrome/129.0.0.0 Safari/537.36" version="24.7.17">
  <diagram name="第 1 页" id="a8IFIMQ_GZ5A4tOtRfXz">
    <mxGraphModel dx="1194" dy="755" grid="1" gridSize="10" guides="1" tooltips="1" connect="1" arrows="1" fold="1" page="1" pageScale="1" pageWidth="3300" pageHeight="4681" math="0" shadow="0">
      <root>
        <mxCell id="0" />
        <mxCell id="1" parent="0" />
        <mxCell id="jn2VYIsVmCKofuJKfp-f-1" style="edgeStyle=orthogonalEdgeStyle;rounded=1;orthogonalLoop=1;jettySize=auto;html=1;entryX=0;entryY=0.5;entryDx=0;entryDy=0;labelBackgroundColor=none;strokeColor=#A8201A;fontColor=default;" edge="1" parent="1" source="jn2VYIsVmCKofuJKfp-f-2" target="jn2VYIsVmCKofuJKfp-f-3">
          <mxGeometry relative="1" as="geometry" />
        </mxCell>
        <mxCell id="jn2VYIsVmCKofuJKfp-f-2" value="Actor" style="shape=umlActor;verticalLabelPosition=bottom;verticalAlign=top;html=1;outlineConnect=0;rounded=1;labelBackgroundColor=none;fillColor=#FAE5C7;strokeColor=#0F8B8D;fontColor=#143642;" vertex="1" parent="1">
          <mxGeometry x="60" y="382.5" width="30" height="60" as="geometry" />
        </mxCell>
        <mxCell id="jn2VYIsVmCKofuJKfp-f-3" value="&lt;div style=&quot;text-align: left;&quot;&gt;&lt;span style=&quot;background-color: initial; white-space-collapse: preserve;&quot;&gt;&lt;font face=&quot;Inter, system-ui, -apple-system, system-ui, Segoe UI, Roboto, Oxygen, Ubuntu, Cantarell, Fira Sans, Droid Sans, Helvetica, Arial, sans-serif&quot; color=&quot;#212121&quot;&gt;download.api.bsb.baidu.com&lt;/font&gt;&lt;/span&gt;&lt;/div&gt;" style="rounded=1;whiteSpace=wrap;html=1;labelBackgroundColor=none;fillColor=#FAE5C7;strokeColor=#0F8B8D;fontColor=#143642;" vertex="1" parent="1">
          <mxGeometry x="130" y="383.75" width="180" height="57.5" as="geometry" />
        </mxCell>
        <mxCell id="jn2VYIsVmCKofuJKfp-f-4" value="NJJS" style="swimlane;whiteSpace=wrap;html=1;align=left;rounded=1;labelBackgroundColor=none;fillColor=#FAE5C7;strokeColor=#0F8B8D;fontColor=#143642;" vertex="1" parent="1">
          <mxGeometry x="900" y="572.5" width="180" height="245" as="geometry" />
        </mxCell>
        <mxCell id="jn2VYIsVmCKofuJKfp-f-5" value="url_nginx&lt;div&gt;&lt;span style=&quot;color: rgba(0, 0, 0, 0.88); font-family: -apple-system, &amp;quot;system-ui&amp;quot;, &amp;quot;Segoe UI&amp;quot;, Roboto, &amp;quot;Helvetica Neue&amp;quot;, Arial, &amp;quot;Noto Sans&amp;quot;, sans-serif, &amp;quot;Apple Color Emoji&amp;quot;, &amp;quot;Segoe UI Emoji&amp;quot;, &amp;quot;Segoe UI Symbol&amp;quot;, &amp;quot;Noto Color Emoji&amp;quot;; font-size: 14px; text-align: start; background-color: rgb(245, 245, 245);&quot;&gt;10.175.97.147:9443&lt;/span&gt;&lt;br&gt;&lt;/div&gt;" style="rounded=1;whiteSpace=wrap;html=1;labelBackgroundColor=none;fillColor=#FAE5C7;strokeColor=#0F8B8D;fontColor=#143642;" vertex="1" parent="jn2VYIsVmCKofuJKfp-f-4">
          <mxGeometry x="10" y="40" width="160" height="60" as="geometry" />
        </mxCell>
        <mxCell id="jn2VYIsVmCKofuJKfp-f-6" value="url_nginx&lt;div&gt;&lt;span style=&quot;color: rgba(0, 0, 0, 0.88); font-family: -apple-system, &amp;quot;system-ui&amp;quot;, &amp;quot;Segoe UI&amp;quot;, Roboto, &amp;quot;Helvetica Neue&amp;quot;, Arial, &amp;quot;Noto Sans&amp;quot;, sans-serif, &amp;quot;Apple Color Emoji&amp;quot;, &amp;quot;Segoe UI Emoji&amp;quot;, &amp;quot;Segoe UI Symbol&amp;quot;, &amp;quot;Noto Color Emoji&amp;quot;; font-size: 14px; text-align: start; background-color: rgb(245, 245, 245);&quot;&gt;10.175.97.150:9443&lt;/span&gt;&lt;br&gt;&lt;/div&gt;" style="rounded=1;whiteSpace=wrap;html=1;labelBackgroundColor=none;fillColor=#FAE5C7;strokeColor=#0F8B8D;fontColor=#143642;" vertex="1" parent="jn2VYIsVmCKofuJKfp-f-4">
          <mxGeometry x="10" y="115" width="160" height="50" as="geometry" />
        </mxCell>
        <mxCell id="jn2VYIsVmCKofuJKfp-f-7" value="url_nginx&lt;div&gt;&lt;span style=&quot;color: rgba(0, 0, 0, 0.88); font-family: -apple-system, &amp;quot;system-ui&amp;quot;, &amp;quot;Segoe UI&amp;quot;, Roboto, &amp;quot;Helvetica Neue&amp;quot;, Arial, &amp;quot;Noto Sans&amp;quot;, sans-serif, &amp;quot;Apple Color Emoji&amp;quot;, &amp;quot;Segoe UI Emoji&amp;quot;, &amp;quot;Segoe UI Symbol&amp;quot;, &amp;quot;Noto Color Emoji&amp;quot;; font-size: 14px; text-align: start; background-color: rgb(245, 245, 245);&quot;&gt;10.175.97.160:9443&lt;/span&gt;&lt;br&gt;&lt;/div&gt;" style="rounded=1;whiteSpace=wrap;html=1;labelBackgroundColor=none;fillColor=#FAE5C7;strokeColor=#0F8B8D;fontColor=#143642;" vertex="1" parent="jn2VYIsVmCKofuJKfp-f-4">
          <mxGeometry x="10" y="185" width="160" height="50" as="geometry" />
        </mxCell>
        <mxCell id="jn2VYIsVmCKofuJKfp-f-11" value="BJYZ" style="swimlane;whiteSpace=wrap;html=1;align=left;rounded=1;labelBackgroundColor=none;fillColor=#FAE5C7;strokeColor=#0F8B8D;fontColor=#143642;" vertex="1" parent="1">
          <mxGeometry x="900" y="77.5" width="180" height="205" as="geometry">
            <mxRectangle x="640" y="90" width="130" height="30" as="alternateBounds" />
          </mxGeometry>
        </mxCell>
        <mxCell id="jn2VYIsVmCKofuJKfp-f-12" value="url_nginx&lt;div&gt;&lt;span style=&quot;color: rgba(0, 0, 0, 0.88); font-family: -apple-system, &amp;quot;system-ui&amp;quot;, &amp;quot;Segoe UI&amp;quot;, Roboto, &amp;quot;Helvetica Neue&amp;quot;, Arial, &amp;quot;Noto Sans&amp;quot;, sans-serif, &amp;quot;Apple Color Emoji&amp;quot;, &amp;quot;Segoe UI Emoji&amp;quot;, &amp;quot;Segoe UI Symbol&amp;quot;, &amp;quot;Noto Color Emoji&amp;quot;; font-size: 14px; text-align: start; background-color: rgb(245, 245, 245);&quot;&gt;10.227.123.165:9443&lt;/span&gt;&lt;/div&gt;" style="rounded=1;whiteSpace=wrap;html=1;labelBackgroundColor=none;fillColor=#FAE5C7;strokeColor=#0F8B8D;fontColor=#143642;" vertex="1" parent="jn2VYIsVmCKofuJKfp-f-11">
          <mxGeometry x="10" y="40" width="160" height="60" as="geometry" />
        </mxCell>
        <mxCell id="jn2VYIsVmCKofuJKfp-f-13" value="url_nginx&lt;div&gt;&lt;span style=&quot;color: rgba(0, 0, 0, 0.88); font-family: -apple-system, &amp;quot;system-ui&amp;quot;, &amp;quot;Segoe UI&amp;quot;, Roboto, &amp;quot;Helvetica Neue&amp;quot;, Arial, &amp;quot;Noto Sans&amp;quot;, sans-serif, &amp;quot;Apple Color Emoji&amp;quot;, &amp;quot;Segoe UI Emoji&amp;quot;, &amp;quot;Segoe UI Symbol&amp;quot;, &amp;quot;Noto Color Emoji&amp;quot;; font-size: 14px; text-align: start; background-color: rgb(245, 245, 245);&quot;&gt;10.227.123.166:9443&lt;/span&gt;&lt;br&gt;&lt;/div&gt;" style="rounded=1;whiteSpace=wrap;html=1;labelBackgroundColor=none;fillColor=#FAE5C7;strokeColor=#0F8B8D;fontColor=#143642;" vertex="1" parent="jn2VYIsVmCKofuJKfp-f-11">
          <mxGeometry x="10" y="120" width="160" height="60" as="geometry" />
        </mxCell>
        <mxCell id="jn2VYIsVmCKofuJKfp-f-14" value="" style="endArrow=classic;html=1;rounded=1;exitX=1;exitY=0.5;exitDx=0;exitDy=0;entryX=0;entryY=0.5;entryDx=0;entryDy=0;labelBackgroundColor=none;strokeColor=#A8201A;fontColor=default;" edge="1" parent="1" source="jn2VYIsVmCKofuJKfp-f-47" target="jn2VYIsVmCKofuJKfp-f-25">
          <mxGeometry width="50" height="50" relative="1" as="geometry">
            <mxPoint x="510" y="560" as="sourcePoint" />
            <mxPoint x="800" y="340" as="targetPoint" />
          </mxGeometry>
        </mxCell>
        <mxCell id="jn2VYIsVmCKofuJKfp-f-15" value="通过 ip 代理" style="edgeLabel;html=1;align=center;verticalAlign=middle;resizable=0;points=[];rounded=1;labelBackgroundColor=none;fontColor=#143642;" vertex="1" connectable="0" parent="jn2VYIsVmCKofuJKfp-f-14">
          <mxGeometry x="-0.0596" y="1" relative="1" as="geometry">
            <mxPoint x="5" y="-26" as="offset" />
          </mxGeometry>
        </mxCell>
        <mxCell id="jn2VYIsVmCKofuJKfp-f-16" value="" style="endArrow=classic;html=1;rounded=1;entryX=0;entryY=0.5;entryDx=0;entryDy=0;exitX=1;exitY=0.5;exitDx=0;exitDy=0;labelBackgroundColor=none;strokeColor=#A8201A;fontColor=default;" edge="1" parent="1" source="jn2VYIsVmCKofuJKfp-f-47" target="jn2VYIsVmCKofuJKfp-f-27">
          <mxGeometry width="50" height="50" relative="1" as="geometry">
            <mxPoint x="480" y="410" as="sourcePoint" />
            <mxPoint x="890" y="400" as="targetPoint" />
          </mxGeometry>
        </mxCell>
        <mxCell id="jn2VYIsVmCKofuJKfp-f-17" value="通过 ip 代理" style="edgeLabel;html=1;align=center;verticalAlign=middle;resizable=0;points=[];rounded=1;labelBackgroundColor=none;fontColor=#143642;" vertex="1" connectable="0" parent="jn2VYIsVmCKofuJKfp-f-16">
          <mxGeometry x="-0.05" y="2" relative="1" as="geometry">
            <mxPoint as="offset" />
          </mxGeometry>
        </mxCell>
        <mxCell id="jn2VYIsVmCKofuJKfp-f-24" style="edgeStyle=orthogonalEdgeStyle;rounded=1;orthogonalLoop=1;jettySize=auto;html=1;exitX=1;exitY=0.5;exitDx=0;exitDy=0;entryX=0;entryY=0.5;entryDx=0;entryDy=0;labelBackgroundColor=none;strokeColor=#A8201A;fontColor=default;" edge="1" parent="1" source="jn2VYIsVmCKofuJKfp-f-25" target="jn2VYIsVmCKofuJKfp-f-11">
          <mxGeometry relative="1" as="geometry" />
        </mxCell>
        <mxCell id="jn2VYIsVmCKofuJKfp-f-25" value="url_nginx proxy vip:&amp;nbsp;&lt;div&gt;&lt;span style=&quot;color: rgb(21, 27, 38); font-family: -apple-system, &amp;quot;system-ui&amp;quot;, &amp;quot;Segoe UI&amp;quot;, &amp;quot;Helvetica Neue&amp;quot;, Arial, &amp;quot;PingFang SC&amp;quot;, &amp;quot;Hiragino Sans GB&amp;quot;, &amp;quot;Microsoft YaHei&amp;quot;, 微软雅黑, &amp;quot;sans-serif&amp;quot;, &amp;quot;Apple Color Emoji&amp;quot;, &amp;quot;Segoe UI Emoji&amp;quot;, &amp;quot;Segoe UI Symbol&amp;quot;, &amp;quot;Noto Color Emoji&amp;quot;; text-align: left; background-color: rgb(230, 240, 255);&quot;&gt;BJYZ:&amp;nbsp;&lt;/span&gt;&lt;span style=&quot;background-color: rgb(230, 240, 255); color: rgb(21, 27, 38); font-family: -apple-system, &amp;quot;system-ui&amp;quot;, &amp;quot;Segoe UI&amp;quot;, &amp;quot;Helvetica Neue&amp;quot;, Arial, &amp;quot;PingFang SC&amp;quot;, &amp;quot;Hiragino Sans GB&amp;quot;, &amp;quot;Microsoft YaHei&amp;quot;, 微软雅黑, &amp;quot;sans-serif&amp;quot;, &amp;quot;Apple Color Emoji&amp;quot;, &amp;quot;Segoe UI Emoji&amp;quot;, &amp;quot;Segoe UI Symbol&amp;quot;, &amp;quot;Noto Color Emoji&amp;quot;; text-align: left;&quot;&gt;112.34.113.214: 443&lt;/span&gt;&lt;/div&gt;" style="rounded=1;whiteSpace=wrap;html=1;labelBackgroundColor=none;fillColor=#FAE5C7;strokeColor=#0F8B8D;fontColor=#143642;" vertex="1" parent="1">
          <mxGeometry x="645" y="143.44" width="185" height="73.12" as="geometry" />
        </mxCell>
        <mxCell id="jn2VYIsVmCKofuJKfp-f-26" style="edgeStyle=orthogonalEdgeStyle;rounded=1;orthogonalLoop=1;jettySize=auto;html=1;exitX=1;exitY=0.5;exitDx=0;exitDy=0;entryX=0;entryY=0.5;entryDx=0;entryDy=0;labelBackgroundColor=none;strokeColor=#A8201A;fontColor=default;" edge="1" parent="1" source="jn2VYIsVmCKofuJKfp-f-27" target="jn2VYIsVmCKofuJKfp-f-4">
          <mxGeometry relative="1" as="geometry" />
        </mxCell>
        <mxCell id="jn2VYIsVmCKofuJKfp-f-27" value="url_nginx proxy vip: NJJS:&amp;nbsp;&lt;span style=&quot;color: rgba(0, 0, 0, 0.88); font-family: -apple-system, &amp;quot;system-ui&amp;quot;, &amp;quot;Segoe UI&amp;quot;, Roboto, &amp;quot;Helvetica Neue&amp;quot;, Arial, &amp;quot;Noto Sans&amp;quot;, sans-serif, &amp;quot;Apple Color Emoji&amp;quot;, &amp;quot;Segoe UI Emoji&amp;quot;, &amp;quot;Segoe UI Symbol&amp;quot;, &amp;quot;Noto Color Emoji&amp;quot;; font-size: 14px; text-align: start; background-color: rgb(245, 245, 245);&quot;&gt;180.101.50.164&lt;/span&gt;&lt;span style=&quot;color: rgb(21, 27, 38); font-family: -apple-system, &amp;quot;system-ui&amp;quot;, &amp;quot;Segoe UI&amp;quot;, &amp;quot;Helvetica Neue&amp;quot;, Arial, &amp;quot;PingFang SC&amp;quot;, &amp;quot;Hiragino Sans GB&amp;quot;, &amp;quot;Microsoft YaHei&amp;quot;, 微软雅黑, &amp;quot;sans-serif&amp;quot;, &amp;quot;Apple Color Emoji&amp;quot;, &amp;quot;Segoe UI Emoji&amp;quot;, &amp;quot;Segoe UI Symbol&amp;quot;, &amp;quot;Noto Color Emoji&amp;quot;; text-align: left; background-color: rgb(230, 240, 255);&quot;&gt;:443&lt;/span&gt;" style="rounded=1;whiteSpace=wrap;html=1;labelBackgroundColor=none;fillColor=#FAE5C7;strokeColor=#0F8B8D;fontColor=#143642;" vertex="1" parent="1">
          <mxGeometry x="645" y="660" width="185" height="70" as="geometry" />
        </mxCell>
        <mxCell id="jn2VYIsVmCKofuJKfp-f-30" value="go_server proxy vip: 4.4.4.4" style="rounded=1;whiteSpace=wrap;html=1;labelBackgroundColor=none;fillColor=#FAE5C7;strokeColor=#0F8B8D;fontColor=#143642;" vertex="1" parent="1">
          <mxGeometry x="1150" y="150" width="130" height="60" as="geometry" />
        </mxCell>
        <mxCell id="jn2VYIsVmCKofuJKfp-f-31" value="go_server proxy vip: 5.5.5.5" style="rounded=1;whiteSpace=wrap;html=1;labelBackgroundColor=none;fillColor=#FAE5C7;strokeColor=#0F8B8D;fontColor=#143642;" vertex="1" parent="1">
          <mxGeometry x="1150" y="665" width="130" height="60" as="geometry" />
        </mxCell>
        <mxCell id="jn2VYIsVmCKofuJKfp-f-33" value="" style="endArrow=classic;html=1;rounded=0;strokeColor=#A8201A;fontColor=#143642;fillColor=#FAE5C7;exitX=1;exitY=0.5;exitDx=0;exitDy=0;entryX=0;entryY=0.5;entryDx=0;entryDy=0;" edge="1" parent="1" source="jn2VYIsVmCKofuJKfp-f-11" target="jn2VYIsVmCKofuJKfp-f-30">
          <mxGeometry width="50" height="50" relative="1" as="geometry">
            <mxPoint x="1230" y="80" as="sourcePoint" />
            <mxPoint x="1280" y="30" as="targetPoint" />
          </mxGeometry>
        </mxCell>
        <mxCell id="jn2VYIsVmCKofuJKfp-f-34" value="" style="endArrow=classic;html=1;rounded=0;strokeColor=#A8201A;fontColor=#143642;fillColor=#FAE5C7;exitX=1;exitY=0.5;exitDx=0;exitDy=0;entryX=0;entryY=0.5;entryDx=0;entryDy=0;" edge="1" parent="1" source="jn2VYIsVmCKofuJKfp-f-4" target="jn2VYIsVmCKofuJKfp-f-31">
          <mxGeometry width="50" height="50" relative="1" as="geometry">
            <mxPoint x="1090" y="190" as="sourcePoint" />
            <mxPoint x="1200" y="190" as="targetPoint" />
          </mxGeometry>
        </mxCell>
        <mxCell id="jn2VYIsVmCKofuJKfp-f-47" value="&lt;font face=&quot;-apple-system, system-ui, Segoe UI, Helvetica Neue, Arial, PingFang SC, Hiragino Sans GB, Microsoft YaHei, 微软雅黑, sans-serif, Apple Color Emoji, Segoe UI Emoji, Segoe UI Symbol, Noto Color Emoji&quot; color=&quot;#151b26&quot;&gt;&lt;span style=&quot;font-size: 16px;&quot;&gt;downloadapi.n.shifen.com&lt;/span&gt;&lt;/font&gt;" style="rounded=1;whiteSpace=wrap;html=1;labelBackgroundColor=none;fillColor=#FAE5C7;strokeColor=#0F8B8D;fontColor=#143642;" vertex="1" parent="1">
          <mxGeometry x="340" y="383.75" width="200" height="57.5" as="geometry" />
        </mxCell>
        <mxCell id="jn2VYIsVmCKofuJKfp-f-48" value="" style="endArrow=classic;html=1;rounded=0;strokeColor=#A8201A;fontColor=#143642;fillColor=#FAE5C7;exitX=1;exitY=0.5;exitDx=0;exitDy=0;entryX=0;entryY=0.5;entryDx=0;entryDy=0;" edge="1" parent="1" source="jn2VYIsVmCKofuJKfp-f-3" target="jn2VYIsVmCKofuJKfp-f-47">
          <mxGeometry width="50" height="50" relative="1" as="geometry">
            <mxPoint x="560" y="400" as="sourcePoint" />
            <mxPoint x="610" y="350" as="targetPoint" />
          </mxGeometry>
        </mxCell>
        <mxCell id="jn2VYIsVmCKofuJKfp-f-49" value="domain" style="text;html=1;align=center;verticalAlign=middle;whiteSpace=wrap;rounded=0;fontColor=#143642;" vertex="1" parent="1">
          <mxGeometry x="110" y="340" width="60" height="30" as="geometry" />
        </mxCell>
        <mxCell id="jn2VYIsVmCKofuJKfp-f-50" value="cname" style="text;html=1;align=center;verticalAlign=middle;whiteSpace=wrap;rounded=0;fontColor=#143642;" vertex="1" parent="1">
          <mxGeometry x="330" y="340" width="60" height="30" as="geometry" />
        </mxCell>
        <mxCell id="jn2VYIsVmCKofuJKfp-f-53" value="BDDWD" style="swimlane;whiteSpace=wrap;html=1;align=left;rounded=1;labelBackgroundColor=none;fillColor=#FAE5C7;strokeColor=#0F8B8D;fontColor=#143642;" vertex="1" parent="1">
          <mxGeometry x="900" y="310.62" width="180" height="205" as="geometry">
            <mxRectangle x="640" y="90" width="130" height="30" as="alternateBounds" />
          </mxGeometry>
        </mxCell>
        <mxCell id="jn2VYIsVmCKofuJKfp-f-54" value="url_nginx&lt;br&gt;&lt;div&gt;&lt;span style=&quot;background-color: rgb(245, 245, 245); color: rgba(0, 0, 0, 0.88); font-family: -apple-system, &amp;quot;system-ui&amp;quot;, &amp;quot;Segoe UI&amp;quot;, Roboto, &amp;quot;Helvetica Neue&amp;quot;, Arial, &amp;quot;Noto Sans&amp;quot;, sans-serif, &amp;quot;Apple Color Emoji&amp;quot;, &amp;quot;Segoe UI Emoji&amp;quot;, &amp;quot;Segoe UI Symbol&amp;quot;, &amp;quot;Noto Color Emoji&amp;quot;; font-size: 14px; text-align: start;&quot;&gt;10.41.58.19&lt;/span&gt;&lt;span style=&quot;color: rgba(0, 0, 0, 0.88); font-family: -apple-system, &amp;quot;system-ui&amp;quot;, &amp;quot;Segoe UI&amp;quot;, Roboto, &amp;quot;Helvetica Neue&amp;quot;, Arial, &amp;quot;Noto Sans&amp;quot;, sans-serif, &amp;quot;Apple Color Emoji&amp;quot;, &amp;quot;Segoe UI Emoji&amp;quot;, &amp;quot;Segoe UI Symbol&amp;quot;, &amp;quot;Noto Color Emoji&amp;quot;; font-size: 14px; text-align: start; background-color: rgb(245, 245, 245);&quot;&gt;:9443&lt;/span&gt;&lt;/div&gt;" style="rounded=1;whiteSpace=wrap;html=1;labelBackgroundColor=none;fillColor=#FAE5C7;strokeColor=#0F8B8D;fontColor=#143642;" vertex="1" parent="jn2VYIsVmCKofuJKfp-f-53">
          <mxGeometry x="10" y="40" width="160" height="60" as="geometry" />
        </mxCell>
        <mxCell id="jn2VYIsVmCKofuJKfp-f-55" value="url_nginx&lt;br&gt;&lt;div&gt;&lt;span style=&quot;background-color: rgb(245, 245, 245); color: rgba(0, 0, 0, 0.88); font-family: -apple-system, &amp;quot;system-ui&amp;quot;, &amp;quot;Segoe UI&amp;quot;, Roboto, &amp;quot;Helvetica Neue&amp;quot;, Arial, &amp;quot;Noto Sans&amp;quot;, sans-serif, &amp;quot;Apple Color Emoji&amp;quot;, &amp;quot;Segoe UI Emoji&amp;quot;, &amp;quot;Segoe UI Symbol&amp;quot;, &amp;quot;Noto Color Emoji&amp;quot;; font-size: 14px; text-align: start;&quot;&gt;10.41.58.20&lt;/span&gt;&lt;span style=&quot;color: rgba(0, 0, 0, 0.88); font-family: -apple-system, &amp;quot;system-ui&amp;quot;, &amp;quot;Segoe UI&amp;quot;, Roboto, &amp;quot;Helvetica Neue&amp;quot;, Arial, &amp;quot;Noto Sans&amp;quot;, sans-serif, &amp;quot;Apple Color Emoji&amp;quot;, &amp;quot;Segoe UI Emoji&amp;quot;, &amp;quot;Segoe UI Symbol&amp;quot;, &amp;quot;Noto Color Emoji&amp;quot;; font-size: 14px; text-align: start; background-color: rgb(245, 245, 245);&quot;&gt;:9443&lt;/span&gt;&lt;br&gt;&lt;/div&gt;" style="rounded=1;whiteSpace=wrap;html=1;labelBackgroundColor=none;fillColor=#FAE5C7;strokeColor=#0F8B8D;fontColor=#143642;" vertex="1" parent="jn2VYIsVmCKofuJKfp-f-53">
          <mxGeometry x="10" y="120" width="160" height="60" as="geometry" />
        </mxCell>
        <mxCell id="jn2VYIsVmCKofuJKfp-f-56" value="url_nginx proxy vip:&amp;nbsp;&lt;div style=&quot;text-align: left;&quot;&gt;&lt;font face=&quot;-apple-system, system-ui, Segoe UI, Helvetica Neue, Arial, PingFang SC, Hiragino Sans GB, Microsoft YaHei, 微软雅黑, sans-serif, Apple Color Emoji, Segoe UI Emoji, Segoe UI Symbol, Noto Color Emoji&quot; color=&quot;#151b26&quot;&gt;&lt;span style=&quot;background-color: rgb(230, 240, 255);&quot;&gt;BDDWD:&amp;nbsp;&lt;/span&gt;&lt;/font&gt;&lt;span style=&quot;background-color: rgb(230, 240, 255); color: rgb(21, 27, 38); font-family: -apple-system, &amp;quot;system-ui&amp;quot;, &amp;quot;Segoe UI&amp;quot;, &amp;quot;Helvetica Neue&amp;quot;, Arial, &amp;quot;PingFang SC&amp;quot;, &amp;quot;Hiragino Sans GB&amp;quot;, &amp;quot;Microsoft YaHei&amp;quot;, 微软雅黑, &amp;quot;sans-serif&amp;quot;, &amp;quot;Apple Color Emoji&amp;quot;, &amp;quot;Segoe UI Emoji&amp;quot;, &amp;quot;Segoe UI Symbol&amp;quot;, &amp;quot;Noto Color Emoji&amp;quot;;&quot;&gt;110.242.68.25:443&lt;/span&gt;&lt;/div&gt;" style="rounded=1;whiteSpace=wrap;html=1;labelBackgroundColor=none;fillColor=#FAE5C7;strokeColor=#0F8B8D;fontColor=#143642;" vertex="1" parent="1">
          <mxGeometry x="640" y="373.12" width="190" height="80" as="geometry" />
        </mxCell>
        <mxCell id="jn2VYIsVmCKofuJKfp-f-57" value="" style="endArrow=classic;html=1;rounded=0;exitX=1;exitY=0.5;exitDx=0;exitDy=0;entryX=0;entryY=0.5;entryDx=0;entryDy=0;" edge="1" parent="1" source="jn2VYIsVmCKofuJKfp-f-47" target="jn2VYIsVmCKofuJKfp-f-56">
          <mxGeometry width="50" height="50" relative="1" as="geometry">
            <mxPoint x="680" y="560" as="sourcePoint" />
            <mxPoint x="730" y="510" as="targetPoint" />
          </mxGeometry>
        </mxCell>
        <mxCell id="jn2VYIsVmCKofuJKfp-f-58" value="" style="endArrow=classic;html=1;rounded=0;exitX=1;exitY=0.5;exitDx=0;exitDy=0;entryX=0;entryY=0.5;entryDx=0;entryDy=0;" edge="1" parent="1" source="jn2VYIsVmCKofuJKfp-f-56" target="jn2VYIsVmCKofuJKfp-f-53">
          <mxGeometry width="50" height="50" relative="1" as="geometry">
            <mxPoint x="820" y="530" as="sourcePoint" />
            <mxPoint x="920" y="544" as="targetPoint" />
          </mxGeometry>
        </mxCell>
      </root>
    </mxGraphModel>
  </diagram>
</mxfile>
